<svg xmlns="http://www.w3.org/2000/svg" width="264" height="37" viewBox="0 0 264 37">
  <g id="Groupe_2" data-name="Groupe 2" transform="translate(-1245 -656)">
    <g id="logo" transform="translate(1214 656)">
      <rect id="Rectangle_1" data-name="Rectangle 1" width="262" height="35" transform="translate(32 1)" fill="none" stroke="#222" stroke-width="2"/>
      <g id="Groupe_1" data-name="Groupe 1" transform="translate(176.463 9.588)">
        <path id="Tracé_2" data-name="Tracé 2" d="M137.081,18.832a4.717,4.717,0,0,0,1.512-.216A2.955,2.955,0,0,0,139.637,18a2.43,2.43,0,0,0,.6-.924,3.347,3.347,0,0,0,.192-1.152,2.352,2.352,0,0,0-.828-1.92,3.826,3.826,0,0,0-2.5-.684h-1.872v5.508ZM145.517,28h-3.252a1.413,1.413,0,0,1-1.32-.7l-3.312-5.34a1.375,1.375,0,0,0-.456-.456,1.428,1.428,0,0,0-.72-.144h-1.224V28h-3.6V10.588H137.1a11.08,11.08,0,0,1,3.12.384,5.926,5.926,0,0,1,2.124,1.044,4.012,4.012,0,0,1,1.212,1.608,5.556,5.556,0,0,1,.132,3.684,4.733,4.733,0,0,1-.708,1.4,5.147,5.147,0,0,1-1.152,1.128,5.958,5.958,0,0,1-1.56.792,3.333,3.333,0,0,1,.648.468,3.022,3.022,0,0,1,.54.636Zm15.473-7.644a3.327,3.327,0,0,0-.144-.984,2.217,2.217,0,0,0-.432-.828,2.064,2.064,0,0,0-.756-.564,2.9,2.9,0,0,0-2.952.456,3.413,3.413,0,0,0-.876,1.92Zm-5.208,1.968a3.93,3.93,0,0,0,.984,2.544,3.028,3.028,0,0,0,2.184.8,3.914,3.914,0,0,0,1.176-.156,6.184,6.184,0,0,0,.876-.36q.384-.2.684-.36a1.285,1.285,0,0,1,.612-.168.708.708,0,0,1,.6.288l.96,1.2a5.359,5.359,0,0,1-1.164,1.02,6.671,6.671,0,0,1-1.32.636,7.012,7.012,0,0,1-1.38.312,9.839,9.839,0,0,1-1.344.1,6.891,6.891,0,0,1-2.424-.42,5.672,5.672,0,0,1-1.956-1.26,6.012,6.012,0,0,1-1.308-2.076,7.892,7.892,0,0,1-.48-2.868,6.865,6.865,0,0,1,.408-2.376,5.759,5.759,0,0,1,1.2-1.944,5.617,5.617,0,0,1,1.9-1.308,6.185,6.185,0,0,1,2.52-.492,6.023,6.023,0,0,1,2.184.384,4.718,4.718,0,0,1,1.728,1.092,4.828,4.828,0,0,1,1.128,1.776,6.525,6.525,0,0,1,.408,2.388,4.259,4.259,0,0,1-.036.612,1.087,1.087,0,0,1-.12.384.469.469,0,0,1-.228.2,1.2,1.2,0,0,1-.372.048ZM180.9,18.172a1.017,1.017,0,0,1-.276.3.692.692,0,0,1-.372.084,1.14,1.14,0,0,1-.492-.12q-.252-.12-.564-.252a5.283,5.283,0,0,0-.72-.264,3.2,3.2,0,0,0-.924-.12,2.031,2.031,0,0,0-1.248.336,1.018,1.018,0,0,0-.444.864.848.848,0,0,0,.252.624,2.321,2.321,0,0,0,.66.444q.42.18.948.348t1.08.348a10.058,10.058,0,0,1,1.092.444,3.647,3.647,0,0,1,.936.636,2.761,2.761,0,0,1,.672.912,2.963,2.963,0,0,1,.252,1.284,4.116,4.116,0,0,1-.336,1.668,3.583,3.583,0,0,1-.96,1.308,4.557,4.557,0,0,1-1.584.864,6.984,6.984,0,0,1-2.184.312,6.657,6.657,0,0,1-1.26-.12,6.991,6.991,0,0,1-1.188-.312,8.012,8.012,0,0,1-1.056-.492,4.719,4.719,0,0,1-.852-.6l.768-1.236a.879.879,0,0,1,.84-.456,1.029,1.029,0,0,1,.552.156l.564.324a5.845,5.845,0,0,0,.732.324,3.413,3.413,0,0,0,1.068.144,2.81,2.81,0,0,0,.828-.108,1.623,1.623,0,0,0,.564-.288,1.175,1.175,0,0,0,.312-.42,1.188,1.188,0,0,0,.108-.492.871.871,0,0,0-.264-.66,2.154,2.154,0,0,0-.672-.456,6.422,6.422,0,0,0-.948-.348q-.54-.156-1.1-.348a9.862,9.862,0,0,1-1.092-.456,3.944,3.944,0,0,1-.948-.66,3.305,3.305,0,0,1-.672-1,3.62,3.62,0,0,1-.252-1.428,3.575,3.575,0,0,1,.3-1.452,3.424,3.424,0,0,1,.9-1.224,4.462,4.462,0,0,1,1.488-.84,6.33,6.33,0,0,1,2.076-.312,6.409,6.409,0,0,1,2.4.432A5.207,5.207,0,0,1,181.657,17Zm15.706-2.736a6.924,6.924,0,0,1,2.532.444,5.493,5.493,0,0,1,3.216,3.264A7.465,7.465,0,0,1,202.8,21.8a7.564,7.564,0,0,1-.444,2.664,5.662,5.662,0,0,1-1.26,2,5.521,5.521,0,0,1-1.956,1.272,6.924,6.924,0,0,1-2.532.444,7.055,7.055,0,0,1-2.556-.444,5.521,5.521,0,0,1-1.956-1.272,5.8,5.8,0,0,1-1.272-2,7.564,7.564,0,0,1-.444-2.664,7.465,7.465,0,0,1,.444-2.652,5.677,5.677,0,0,1,1.272-1.992,5.521,5.521,0,0,1,1.956-1.272A7.055,7.055,0,0,1,196.607,15.436Zm0,10.26a2.393,2.393,0,0,0,2.1-.972,5.114,5.114,0,0,0,.684-2.916,5.028,5.028,0,0,0-.684-2.892,2.383,2.383,0,0,0-2.1-.984,2.42,2.42,0,0,0-2.136.984,5.028,5.028,0,0,0-.684,2.892,5.114,5.114,0,0,0,.684,2.916A2.432,2.432,0,0,0,196.607,25.7Zm18.579-8.028A5.541,5.541,0,0,1,216.542,16a2.8,2.8,0,0,1,1.8-.612,2.22,2.22,0,0,1,1.368.4l-.216,2.448a.569.569,0,0,1-.192.336.579.579,0,0,1-.336.084,4.508,4.508,0,0,1-.552-.048,4.1,4.1,0,0,0-.672-.06,2.36,2.36,0,0,0-.816.132,2.052,2.052,0,0,0-.624.372,2.82,2.82,0,0,0-.5.588,6.076,6.076,0,0,0-.408.792V28h-3.312V15.628h1.956a1.025,1.025,0,0,1,.7.18,1.135,1.135,0,0,1,.276.624ZM232.6,28.192a4.269,4.269,0,0,1-1.488-.24,3.035,3.035,0,0,1-1.092-.708,2.972,2.972,0,0,1-.672-1.1,4.393,4.393,0,0,1-.228-1.464V18h-1.164a.67.67,0,0,1-.456-.168.657.657,0,0,1-.18-.5v-1.3l1.98-.36.672-3.2a.669.669,0,0,1,.732-.54h1.728V15.7h3.192V18h-3.192V24.46a1.271,1.271,0,0,0,.24.816.874.874,0,0,0,.708.3,1.5,1.5,0,0,0,.408-.048,2.626,2.626,0,0,0,.288-.12q.12-.072.216-.12a.441.441,0,0,1,.216-.06.389.389,0,0,1,.24.072.653.653,0,0,1,.192.216l1,1.584a4.862,4.862,0,0,1-1.548.816A5.84,5.84,0,0,1,232.6,28.192Z" transform="translate(-131.633 -10.588)" fill="#04bfbf"/>
      </g>
      <text id="TsaR" transform="translate(45 30)" font-size="24" font-family="Transport" letter-spacing="0.253em"><tspan x="0" y="0">TsaR</tspan></text>
    </g>
    <path id="XMLID_151_" d="M57.93,3.145S57.8-1.589,52.579.558a.12.12,0,0,0,.062.23,2.7,2.7,0,0,1,3.1,1.64S52.514.363,48.25,5.317a.12.12,0,0,0,.158.179c1.376-.92,4.345-2.511,6.284-.7,0,0-4.158-.256-4.612,5.395-2.98-3.4-5.228-1.972-5.228-1.972a1.908,1.908,0,0,1,2.194-1.158A.085.085,0,0,0,47.09,6.9C43.448,5.4,43.7,8.81,43.7,8.81c-3.878-.968-3.788,3.629-3.608,5.441a.085.085,0,0,0,.168.006,5.615,5.615,0,0,1,2.714-3.822,8.3,8.3,0,0,0-.816,7.671.125.125,0,0,0,.241-.055,8.69,8.69,0,0,1,2.338-6.336c1.6,2.151,2.15,5.706,2.331,8.191-3.322.832-5.69,2.829-5.69,4.193,0,1.76,3.935,3.186,8.79,3.186s8.79-1.427,8.79-3.186c0-1.312-2.187-3.213-5.309-4.1-.159-3.806.238-8.816,2.848-11.939a11.866,11.866,0,0,1,2.727,8.278.177.177,0,0,0,.342.079A11.757,11.757,0,0,0,58.406,5.56a7.971,7.971,0,0,1,3.788,5.131.12.12,0,0,0,.238-.021C62.5,7.971,62.187,2.083,57.93,3.145Zm-8.681,16.4-.056.006A13.826,13.826,0,0,0,45.8,11.5c1.518.088,2.425,1.536,2.831,2.4a.125.125,0,0,0,.237-.061C48.6,9.706,45.593,9.9,45.593,9.9c1.358-1.271,3.487-.143,4.471.509a.174.174,0,0,0,.127.15.176.176,0,0,0,.2-.1c.6-1.279,1.98-3.477,4.319-3.407A31.379,31.379,0,0,0,49.249,19.549Z" transform="translate(1312.102 660.715)"/>
  </g>
</svg>
